<svg width="41" height="33" viewBox="0 0 41 33" fill="none" xmlns="http://www.w3.org/2000/svg">
<path d="M40.5289 3.83908C39.0086 4.49918 37.4001 4.93408 35.7541 5.13001C37.4839 4.11783 38.7848 2.5098 39.4127 0.607514C37.7773 1.56314 35.991 2.23365 34.1304 2.59033C33.347 1.7698 32.4047 1.11706 31.3609 0.671761C30.3171 0.226464 29.1936 -0.00208181 28.0587 1.42884e-05C23.4637 1.42884e-05 19.7452 3.66189 19.7452 8.17595C19.7419 8.80384 19.8139 9.42986 19.9597 10.0406C16.6647 9.88628 13.4383 9.04635 10.4868 7.57457C7.53538 6.10279 4.92383 4.03158 2.81929 1.49345C2.08097 2.73724 1.69051 4.15636 1.68871 5.60251C1.68871 8.43751 3.16886 10.9434 5.40386 12.4116C4.07968 12.3802 2.78264 12.0299 1.62285 11.3906V11.4919C1.62285 15.4575 4.49365 18.7566 8.29323 19.5075C7.57873 19.6978 6.84244 19.7943 6.10298 19.7944C5.57828 19.7953 5.05478 19.7444 4.54009 19.6425C5.59637 22.8909 8.67066 25.2534 12.3124 25.3209C9.35322 27.5998 5.72017 28.8316 1.98423 28.8225C1.32109 28.8215 0.658566 28.7821 0 28.7044C3.80058 31.1295 8.21846 32.4123 12.7278 32.4C28.041 32.4 36.4068 19.9378 36.4068 9.12938C36.4068 8.77501 36.3975 8.42064 36.3806 8.0747C38.0044 6.9205 39.4092 5.48617 40.5289 3.83908Z" fill="#DCDCDC"/>
</svg>
