<svg id="Layer_1" data-name="Layer 1" xmlns="http://www.w3.org/2000/svg" viewBox="0 0 1500 500"><defs><style>.cls-1{fill:#ff00d4;}.cls-2{fill:#fff;}</style></defs><path class="cls-1" d="M1008.43,296.06l0,.32.06-.31Z"/><path class="cls-2" d="M600.93,373v-15.6h6.89a7,7,0,0,1,2.78.49,3.68,3.68,0,0,1,1.76,1.48,4.59,4.59,0,0,1,.61,2.47,4.31,4.31,0,0,1-.32,1.73,3.52,3.52,0,0,1-.9,1.21,4.1,4.1,0,0,1-1.36.76,6.84,6.84,0,0,1-1.69.34l-.07-.12a9.28,9.28,0,0,1,2.18.31,2.63,2.63,0,0,1,1.42,1,3.52,3.52,0,0,1,.5,2.09V373h-1.92v-3.89a3,3,0,0,0-.32-1.5,1.81,1.81,0,0,0-1.08-.77,7.56,7.56,0,0,0-2.08-.23h-4.49V373Zm1.92-8.19h5a3.27,3.27,0,0,0,2.44-.83,2.94,2.94,0,0,0,.8-2.15,2.45,2.45,0,0,0-.8-2,3.68,3.68,0,0,0-2.44-.68h-5Z"/><path class="cls-2" d="M646,367v-9.6h1.92V367a7.94,7.94,0,0,1-.31,2.34,5.48,5.48,0,0,1-.88,1.76,4.62,4.62,0,0,1-1.36,1.21,6.67,6.67,0,0,1-1.76.7,9.21,9.21,0,0,1-2.08.23,9.41,9.41,0,0,1-2.11-.23,6.24,6.24,0,0,1-1.79-.7,4.82,4.82,0,0,1-1.37-1.21,5.59,5.59,0,0,1-.88-1.76A7.94,7.94,0,0,1,635,367v-9.6h1.92V367a5.13,5.13,0,0,0,.62,2.76,3.21,3.21,0,0,0,1.66,1.32,6.82,6.82,0,0,0,2.26.36,6.53,6.53,0,0,0,2.21-.36,3.18,3.18,0,0,0,1.63-1.32A5,5,0,0,0,646,367Z"/><path class="cls-2" d="M682.48,370.69l-.53.17V357.37h1.92V373H682l-10.13-13.3.53-.17V373h-1.92v-15.6h1.92Z"/><path class="cls-2" d="M733.46,368.77l-2.57,3.07-.31-.67h7.78V373h-9.12v-1.8c1-1.22,1.88-2.26,2.6-3.14s1.34-1.63,1.85-2.26.91-1.16,1.21-1.6a12.71,12.71,0,0,0,.71-1.14,3.51,3.51,0,0,0,.34-.88,3.56,3.56,0,0,0,.08-.8,2.52,2.52,0,0,0-.31-1.27,2.2,2.2,0,0,0-.86-.85,2.62,2.62,0,0,0-1.27-.3,2.7,2.7,0,0,0-1.82.67,2.18,2.18,0,0,0-.79,1.75H729.3a3.35,3.35,0,0,1,.46-2.15,4.16,4.16,0,0,1,1.6-1.51,4.52,4.52,0,0,1,2.24-.56,5,5,0,0,1,1.82.32,4.13,4.13,0,0,1,1.38.9,3.85,3.85,0,0,1,.86,1.34,4.49,4.49,0,0,1,.3,1.66,4.73,4.73,0,0,1-.41,1.84,10.52,10.52,0,0,1-1.08,1.9c-.45.63-.94,1.26-1.46,1.88S734,368.19,733.46,368.77Z"/><path class="cls-2" d="M786.54,366.1v5.06h9.14V373H784.62v-15.6h11v1.8h-9.12v5.14H794v1.8Z"/><path class="cls-2" d="M816.46,373l5.93-15.6h2l6,15.6h-2.06l-5.21-14.11h.58L818.49,373Zm3.17-4.08v-1.8h7.49v1.8Z"/><path class="cls-2" d="M851.39,373v-15.6h6.89a7,7,0,0,1,2.78.49,3.68,3.68,0,0,1,1.76,1.48,4.59,4.59,0,0,1,.61,2.47,4.31,4.31,0,0,1-.32,1.73,3.52,3.52,0,0,1-.9,1.21,4.1,4.1,0,0,1-1.36.76,6.84,6.84,0,0,1-1.69.34l-.07-.12a9.28,9.28,0,0,1,2.18.31,2.63,2.63,0,0,1,1.42,1,3.52,3.52,0,0,1,.5,2.09V373h-1.92v-3.89a3,3,0,0,0-.32-1.5,1.81,1.81,0,0,0-1.08-.77,7.56,7.56,0,0,0-2.08-.23H853.3V373Zm1.92-8.19h5a3.27,3.27,0,0,0,2.44-.83,2.94,2.94,0,0,0,.8-2.15,2.45,2.45,0,0,0-.8-2,3.68,3.68,0,0,0-2.44-.68h-5Z"/><path class="cls-2" d="M897.68,370.69l-.53.17V357.37h1.92V373h-1.92L887,359.67l.53-.17V373h-1.92v-15.6h1.92Z"/><path class="cls-1" d="M698.11,258.7v50.2h-33.8V228.72a5.43,5.43,0,0,0-.58-2.52v0a4.78,4.78,0,0,0-.83-1.25,5.12,5.12,0,0,0-2-1.39A5.38,5.38,0,0,0,655,224.9a4.57,4.57,0,0,0-.42.51c-.23.32-.46.65-.72,1L622,265.2a36.14,36.14,0,0,1-2.82,3.1c-.51.51-1,1-1.53,1.41-1,.9-2.13,1.74-3.24,2.54a37.68,37.68,0,0,1-47.61-4,40.11,40.11,0,0,1-2.85-3.1L532,226.35c-.25-.3-.49-.62-.72-.95a3.17,3.17,0,0,0-.44-.51,2.4,2.4,0,0,0-.46-.44,4.16,4.16,0,0,0-1-.69,5.29,5.29,0,0,0-4.4-.23,5,5,0,0,0-2,1.39,4.54,4.54,0,0,0-.83,1.25v0a5.55,5.55,0,0,0-.58,2.52v80.18H487.8v-50.2a3.24,3.24,0,0,0,0-.44V228.48a41.88,41.88,0,0,1,.44-5.95,39.4,39.4,0,0,1,23.51-30.12c1.16-.49,2.36-.93,3.56-1.32A39.74,39.74,0,0,1,527,189.33a39.12,39.12,0,0,1,23.46,7.82q1.8,1.4,3.47,3c.55.53,1.09,1.06,1.62,1.62a38.79,38.79,0,0,1,3,3.56l31.55,38.45a.27.27,0,0,0,.09.12c.05,0,.07.07.09.09l.19.18a3.68,3.68,0,0,0,2.54,1,3.79,3.79,0,0,0,1.39-.25,2.41,2.41,0,0,0,.76-.42h0a1.61,1.61,0,0,0,.37-.32,1.85,1.85,0,0,0,.37-.37l31.55-38.45a40.47,40.47,0,0,1,3-3.56c.51-.56,1.06-1.09,1.62-1.62a39.07,39.07,0,0,1,54.6.69c.44.44.88.9,1.3,1.37a39.73,39.73,0,0,1,5.46,7.66,36.44,36.44,0,0,1,2.82,6.57,39.16,39.16,0,0,1,1.9,12.08v29.77C698.09,258.4,698.09,258.56,698.11,258.7Z"/><path class="cls-1" d="M745.34,189.34a37.23,37.23,0,0,0-37.23,37.23v45.1a37.23,37.23,0,0,0,37.23,37.23h84.19a37.23,37.23,0,0,0,37.23-37.23v-45.1a37.23,37.23,0,0,0-37.23-37.23Zm88.84,40.92a21.53,21.53,0,0,0-1.42,5.71c0,.26,0,.53,0,.78v24.86a13.07,13.07,0,0,1-13,13.09H736.32a21.29,21.29,0,0,0,4.36-6.73,21.61,21.61,0,0,0,1.42-5.72c0-.26,0-.52,0-.77V236.62a13.07,13.07,0,0,1,13-13.09h83.46A21.12,21.12,0,0,0,834.18,230.26Z"/><path class="cls-1" d="M979.82,189.34H923.74a47.18,47.18,0,0,0-47,47.28v24.86a47.19,47.19,0,0,0,47,47.28h47.72a46.37,46.37,0,0,0,16.36-3,11,11,0,0,0,7.69,3.11h30.39a4.53,4.53,0,0,1-.5-.13,10.31,10.31,0,0,1-7-9.34V247.06h0V227.94A38.6,38.6,0,0,0,979.82,189.34Zm4.63,47.28v37.92l-60.71,0c-2.18,0-13-2.86-13-13.08V236.62a13.05,13.05,0,0,1,13-13.08h47.72A13.06,13.06,0,0,1,984.45,236.62Z"/></svg>
