<svg width="18" height="18" viewBox="0 0 18 18" fill="none" xmlns="http://www.w3.org/2000/svg">
<path d="M6.25628 12.7806C5.91457 13.0596 5.91457 13.5118 6.25628 13.7908C6.59799 14.0697 7.15201 14.0697 7.49372 13.7908L12.7437 9.50508C13.075 9.23466 13.0866 8.79925 12.77 8.51734L7.95751 4.23163C7.63097 3.94083 7.07747 3.92119 6.72124 4.18775C6.36501 4.45432 6.34095 4.90615 6.66749 5.19695L10.9139 8.97852L6.25628 12.7806Z" fill="#D9D9D9"/>
<path d="M6.25628 12.7806C5.91457 13.0596 5.91457 13.5118 6.25628 13.7908C6.59799 14.0697 7.15201 14.0697 7.49372 13.7908L12.7437 9.50508C13.075 9.23466 13.0866 8.79925 12.77 8.51734L7.95751 4.23163C7.63097 3.94083 7.07747 3.92119 6.72124 4.18775C6.36501 4.45432 6.34095 4.90615 6.66749 5.19695L10.9139 8.97852L6.25628 12.7806Z" fill="white"/>
</svg>
