<svg width="18" height="18" viewBox="0 0 18 18" fill="none" xmlns="http://www.w3.org/2000/svg">
<path d="M11.7437 12.7806C12.0854 13.0596 12.0854 13.5118 11.7437 13.7908C11.402 14.0697 10.848 14.0697 10.5063 13.7908L5.25628 9.50508C4.92503 9.23466 4.91344 8.79925 5.22999 8.51734L10.0425 4.23163C10.369 3.94083 10.9225 3.92119 11.2788 4.18775C11.635 4.45432 11.6591 4.90615 11.3325 5.19695L7.08612 8.97852L11.7437 12.7806Z" fill="#D9D9D9"/>
<path d="M11.7437 12.7806C12.0854 13.0596 12.0854 13.5118 11.7437 13.7908C11.402 14.0697 10.848 14.0697 10.5063 13.7908L5.25628 9.50508C4.92503 9.23466 4.91344 8.79925 5.22999 8.51734L10.0425 4.23163C10.369 3.94083 10.9225 3.92119 11.2788 4.18775C11.635 4.45432 11.6591 4.90615 11.3325 5.19695L7.08612 8.97852L11.7437 12.7806Z" fill="white"/>
</svg>
