<svg xmlns="http://www.w3.org/2000/svg" viewBox="0 0 538.09 119.56"><defs><style>.cls-1{fill:#e50d5a;}</style></defs><g id="Layer_2" data-name="Layer 2"><g id="Layer_2-2" data-name="Layer 2"><path class="cls-1" d="M210.31,69.36v50.2h-33.8V39.38a5.43,5.43,0,0,0-.58-2.52v0a4.33,4.33,0,0,0-.83-1.25,5.1,5.1,0,0,0-2-1.38,5.36,5.36,0,0,0-5.92,1.36,3.65,3.65,0,0,0-.41.51c-.24.32-.47.65-.72,1l-31.9,38.84a34.67,34.67,0,0,1-2.83,3.1c-.5.51-1,1-1.52,1.41-1,.9-2.13,1.74-3.24,2.55A37.68,37.68,0,0,1,79,79a40.11,40.11,0,0,1-2.85-3.1L44.25,37c-.25-.3-.48-.63-.71-1a3.17,3.17,0,0,0-.44-.51,2.4,2.4,0,0,0-.46-.44,4.36,4.36,0,0,0-1-.69,5.26,5.26,0,0,0-4.4-.23,5.1,5.1,0,0,0-2,1.38,4.78,4.78,0,0,0-.83,1.25v0a5.55,5.55,0,0,0-.58,2.52v80.18H0V69.36a3.24,3.24,0,0,0,0-.44V39.15A43.17,43.17,0,0,1,.46,33.2,39.4,39.4,0,0,1,24,3.08c1.15-.49,2.36-.93,3.56-1.32A39.74,39.74,0,0,1,39.19,0,39.12,39.12,0,0,1,62.65,7.82q1.8,1.39,3.47,3c.55.54,1.08,1.07,1.62,1.62a42.13,42.13,0,0,1,3,3.57l31.55,38.44c0,.05,0,.1.09.12s.07.07.1.09l.18.19a3.74,3.74,0,0,0,2.55,1,3.63,3.63,0,0,0,1.39-.26,2.48,2.48,0,0,0,.76-.41h0a1.44,1.44,0,0,0,.37-.33,1.62,1.62,0,0,0,.37-.37L139.64,16a38.64,38.64,0,0,1,3-3.57c.51-.55,1.06-1.08,1.62-1.62a39,39,0,0,1,54.59.7c.44.44.88.9,1.3,1.36a40.48,40.48,0,0,1,5.46,7.66,37.16,37.16,0,0,1,2.82,6.57,39.16,39.16,0,0,1,1.9,12.08V68.92A3.24,3.24,0,0,0,210.31,69.36Z"/><path class="cls-1" d="M257.54,0a37.23,37.23,0,0,0-37.23,37.23v45.1a37.23,37.23,0,0,0,37.23,37.23h84.19A37.23,37.23,0,0,0,379,82.33V37.23A37.23,37.23,0,0,0,341.73,0Zm88.84,40.92A21.53,21.53,0,0,0,345,46.63c0,.26,0,.53,0,.79V72.28a13.06,13.06,0,0,1-13,13.09H248.53a21.09,21.09,0,0,0,5.78-12.45c0-.26,0-.51,0-.77V47.29a13.06,13.06,0,0,1,13-13.1h83.46A21.12,21.12,0,0,0,346.38,40.92Z"/><path class="cls-1" d="M492,0H435.94a47.18,47.18,0,0,0-47,47.28V72.14a47.19,47.19,0,0,0,47,47.28h47.72a46.27,46.27,0,0,0,16.35-3,11,11,0,0,0,7.69,3.11h30.39s-.25,0-.5-.13a10.32,10.32,0,0,1-7-9.35c0-10.13,0-29.35,0-35.13V57.71h0V38.59A38.59,38.59,0,0,0,492,0Zm4.63,47.28V85.2l-60.7,0c-2.18,0-13-2.86-13-13.08V47.28a13,13,0,0,1,13-13.08h47.72A13.06,13.06,0,0,1,496.65,47.28Z"/></g></g></svg>